<svg xmlns="http://www.w3.org/2000/svg" viewBox="0 0 500 500" height="500pt" width="500pt"><path d="M124.67 215.69c1.27-3.03 2.26-6.22 4.14-8.95 6.59 15.68 12.82 31.52 19.3 47.25-3.46.02-6.93 0-10.39.01-.58-1.58-1.18-3.16-1.79-4.73-4.89.01-9.78.03-14.67-.01-.56 1.58-1.13 3.16-1.68 4.74h-10.49c5.23-12.75 10.38-25.54 15.58-38.31m3.9 13.67c-1.21 3.79-2.59 7.52-3.97 11.26 2.64.01 5.29 0 7.94.01-1.3-3.77-2.63-7.52-3.97-11.27zM288.55 208.73c8.28-1.71 17.77.89 23.15 7.65 7.02 8.7 6.86 22.32-.46 30.8-8.65 10.02-26.08 10.13-34.96.36-7.25-8.08-7.88-21.11-1.67-29.95 3.16-4.75 8.41-7.76 13.94-8.86m1.7 9.39c-9.21 1.84-12.63 13.92-7.72 21.28 4.58 7.67 17.35 7.74 22.05.16 3.54-5.38 3.05-12.99-1.25-17.8-3.25-3.57-8.49-4.6-13.08-3.64zM153.64 209.06c3.08 0 6.15-.01 9.23.01.04 9.64-.02 19.28.02 28.92-.23 2.64 1.36 5.29 3.74 6.43 4.11 2.33 10.31-.49 10.46-5.42.16-9.98 0-19.96.07-29.93 3.05-.02 6.1-.01 9.15-.01.02 9.32.03 18.63.01 27.95-.04 4.13-.71 8.55-3.54 11.76-6.23 7.59-19.39 7.59-25.61-.01-3.05-3.47-3.55-8.27-3.55-12.7.02-9-.01-18 .02-27zM192.34 209.1c10.52-.01 21.05-.01 31.57 0 .01 3.02.01 6.05.01 9.07-3.71.02-7.41.01-11.12.01.01 11.94 0 23.88.01 35.82h-9.3c0-11.94-.01-23.88 0-35.82-3.73 0-7.46.02-11.19-.01 0-3.03-.01-6.05.02-9.07zM230.35 209.07c3.1-.02 6.21-.02 9.32 0 .03 5.99 0 11.97.01 17.96h13.19c0-5.99-.01-11.98 0-17.97h9.08c.01 14.98 0 29.96.01 44.94h-9.09c-.01-5.97 0-11.95-.01-17.92-4.39-.01-8.79 0-13.18 0 0 5.97 0 11.94.01 17.92h-9.36c.02-14.98-.02-29.96.02-44.93zM325.14 209.07c6.32.03 12.64-.1 18.96.05 6.36.1 11.76 5.71 12.08 11.98.91 6.15-2.67 12.51-8.59 14.57 3.49 6.09 6.87 12.25 10.36 18.33-3.5-.01-7.01 0-10.51-.01-2.94-5.68-6-11.3-8.91-17-1.39-.03-2.76-.05-4.14-.06V254h-9.26c.01-14.98-.02-29.95.01-44.93m9.24 9.12c.01 3.28.01 6.57.01 9.87 2.89-.04 5.8.18 8.68-.17 4.33-.81 4.69-8.12.48-9.32-3-.72-6.12-.29-9.17-.38zM370.15 209.85c5.16-2.18 10.9-.89 16.05.65-.27 2.98-.57 5.98-1.06 8.94-3.55-1.14-7.38-2.5-11.12-1.37-2.93 1.17-3.31 5.86-.5 7.4 4.49 2.47 9.91 3.7 13.27 7.88 5.15 5.83 2.69 16.02-4.2 19.36-6.68 3.41-14.55 1.51-21.01-1.49.46-3.17.66-6.37 1.09-9.55 4.07 2.25 8.67 4.03 13.41 3.42 2.34-.27 4.66-2.47 3.98-4.99-.57-2.28-2.99-3.18-4.92-4.01-4.05-1.64-8.41-3.43-10.96-7.17-4.38-6.36-1.13-16.23 5.97-19.07zM150.08 267.18c34.64-4.15 69.45-7.1 104.33-8.09.06 3.7-.45 7.48.33 11.12.27 3.2.26 6.41.41 9.62.1 3.12.11 6.24.11 9.36-20.1.61-40.22.27-60.31-.59-26.75-1.12-53.5-2.73-80.1-5.92-2.81-.3-6.36-1.52-6.85-4.72-.29-3.25 3.13-5.14 5.9-5.56 12-2.14 24.09-3.71 36.18-5.22m66.45-2.52V283h3.78v-18.34h-3.78m-22.21 3.33c1.13 2.8-4.01 5.74-.28 7.48.27 2.15-.19 4.54.91 6.51 1.24 1.94 3.9.99 5.77 1.14-.45-1.6-.71-3.52-2.72-3.73-.04-1.48-.06-2.95-.08-4.42.59-.01 1.75-.05 2.33-.07 0-.7 0-2.1.01-2.8-.58-.02-1.74-.06-2.31-.07-.01-1.35-.01-2.7-.02-4.04-1.2-.01-2.41-.01-3.61 0m9.3 14.39c1.77 1.44 4.09.71 6.07.25 1.45.15 2.89.32 4.34.51v-11.07c-3 .34-6-.2-8.99-.1-4.37 1.3-5.13 7.93-1.42 10.41m19.25-2.24c2.21 4.26 8.36 3.9 11.22.51-.83-.46-1.65-.92-2.48-1.36-2.05 1.27-4.71 1.3-5.9-1.08 2.87-.2 5.76-.16 8.64-.2-.32-2.62-1.45-5.63-4.42-6.08-4.62-1.53-9.57 3.82-7.06 8.21z"></path><path d="M227.23 274.26c.98-.55 3.82.04 2.83 1.57-1.2 1.44-5.67-.18-2.83-1.57zM206.3 275.43c2.47-1.97 5.64 2.04 3.21 4-2.52 2.54-6.09-2.04-3.21-4z"></path><g><path d="M287.52 262.47c10.19-.61 20.13-4.2 28.49-10.04 16.89 5.78 33.62 12.1 50.37 18.29-15.21.4-30.43.72-45.64.99-1.36-2.5-4.32-4.93-7.21-3.18-3.93 1.61-3.45 7.99.61 9.08 3 .83 5.41-1.63 6.65-4.08 15.21-.42 30.41-.7 45.62-.99-16.41 7.03-32.91 13.84-49.42 20.64-8.55-5.83-18.84-8.77-29.14-9.07 3.1-4.35 3-9.98 2.47-15.06-.17-2.46-1.24-4.71-2.8-6.58z" fill="#a6a2a8"></path></g><g fill="#5271ff"><path d="M254.85 259.13c8.34.22 16.7.02 25.02.72 2.71.22 5.45.96 7.65 2.62 1.56 1.87 2.63 4.12 2.8 6.58.53 5.08.63 10.71-2.47 15.06-2.62 2.45-6.25 3.26-9.71 3.58-7.54.73-15.1 1.2-22.66 1.35 0-3.08-.11-6.15-.33-9.21-.15-3.21-.14-6.42-.41-9.62.12-3.69.14-7.39.11-11.08zM216.53 264.66h3.78V283h-3.78v-18.34zM194.32 267.99c1.2-.01 2.41-.01 3.61 0 .01 1.34.01 2.69.02 4.04.57.01 1.73.05 2.31.07-.01.7-.01 2.1-.01 2.8-.58.02-1.74.06-2.33.07.02 1.47.04 2.94.08 4.42 2.01.21 2.27 2.13 2.72 3.73-1.87-.15-4.53.8-5.77-1.14-1.1-1.97-.64-4.36-.91-6.51-3.73-1.74 1.41-4.68.28-7.48z"></path><path d="M203.62 282.38c-3.71-2.48-2.95-9.11 1.42-10.41 2.99-.1 5.99.44 8.99.1v11.07c-1.45-.19-2.89-.36-4.34-.51-1.98.46-4.3 1.19-6.07-.25m2.68-6.95c-2.88 1.96.69 6.54 3.21 4 2.43-1.96-.74-5.97-3.21-4zM222.87 280.14c-2.51-4.39 2.44-9.74 7.06-8.21 2.97.45 4.1 3.46 4.42 6.08-2.88.04-5.77 0-8.64.2 1.19 2.38 3.85 2.35 5.9 1.08.83.44 1.65.9 2.48 1.36-2.86 3.39-9.01 3.75-11.22-.51m4.36-5.88c-2.84 1.39 1.63 3.01 2.83 1.57.99-1.53-1.85-2.12-2.83-1.57z"></path></g></svg>