<svg xmlns="http://www.w3.org/2000/svg" viewBox="230.24 109 137.6 134.58"><g fill="#2e393f"><path d="M288.95 110.02c10.83-2.34 22.13-.49 32.24 3.75 12.23 5.96 22.09 16.45 27.03 29.15.16.53.46 1.58.62 2.11 3.77 11 3.26 23.19-.62 34.08-.36 1-.71 2.01-1.04 3.03-.94 1.92-1.98 3.79-2.99 5.67-2.03-.22-4.06-.46-6.08-.68.39-1.48.94-2.92 1.8-4.2 3.15-5.13 4.37-11.11 5.34-16.97 1.55-13.99-3.85-28.56-14.23-38.06-6.16-6.32-14.39-10.19-22.9-12.17-6.06-.62-12.18-.69-18.22.06-1.36.38-2.72.73-4.09 1.03-17.33 5.11-31.09 21.07-32.9 39.15-1.19 10.18 1.08 20.93 6.75 29.52-.06.43-.17 1.29-.23 1.72-1.87.16-3.74.34-5.6.53-8.69-15.06-9.39-34.29-1.73-49.91 7.33-14.14 21.14-24.82 36.85-27.81z"/><path d="M275.34 173.83c-3.47-3.52-1.01-10 3.61-10.97 3.97-1.06 7.66 2.59 8.24 6.32-.31 1.75-1.03 3.4-1.68 5.05-3.08 1.95-7.66 2.94-10.17-.4zM311.43 166.42c1.82-1.76 3.82-4.08 6.65-3.72 2.19.11 3.79 1.73 5.44 2.96.41 1.97 1.38 4.11.41 6.07-1.39 5-9.47 5.69-11.85 1.14-1.39-1.88-.81-4.31-.65-6.45zM262.98 192.07c11.16-1.64 22.72-1.14 33.49 2.33 3.53 1.33 6.95-.97 10.43-1.43 18.36-4.46 37.72-.42 54.36 7.93.26.46.77 1.38 1.03 1.83-.06 3-.05 6-.01 9-2.1-.29-4.18-.63-6.26-.99l-.09-5.96c-4.33-1.7-8.66-3.4-13.1-4.8-13.26-3.67-27.5-3.65-40.63.56.01 14.31.01 28.63.01 42.94-2.14 0-4.26 0-6.39-.03.02-14.32-.01-28.64.02-42.96-13.93-4.42-29.09-4.14-42.99.22-.95.5-1.96.83-3.01 1.01-2.53 1.14-5.15 2.09-7.68 3.25-.06 1.89-.1 3.78-.14 5.68-1.92.38-3.83.8-5.73 1.22.06-3.64-.38-7.34.25-10.94.57-.3 1.72-.91 2.29-1.21 7.85-3.1 15.75-6.33 24.15-7.65z"/><path d="M230.51 227.44c.87-5.72 6.05-10.11 11.64-10.88 7.66-1.22 15.08 5.87 14.9 13.47.1 2.33-.86 4.49-1.61 6.63-3.23 4.72-8.71 7.73-14.52 6.72-6.75-1.82-11.96-8.88-10.41-15.94m10.58-4.36c-3.71 1.01-5.4 5.32-4.59 8.85 1.11 5.04 8.29 7.24 12.02 3.63 2.8-2.1 2.51-6.03 1.79-9.06-1.92-2.98-5.77-5.06-9.22-3.42zM351.54 216.76c8.46-2.25 17.34 5.8 16.19 14.38-.3 8.02-9.38 14.37-16.99 11.76-4.21-1.51-8-4.9-9.15-9.32-2.26-6.99 2.85-15.32 9.95-16.82m-4.11 9.93c.03 3-.82 6.77 2.11 8.72 3.51 3.68 9.15 1.58 11.94-1.91.03-2.21.46-4.5-.18-6.66-1.21-1.92-2.85-4.05-5.35-4.09-3.5-1.04-6.43 1.48-8.52 3.94z"/></g></svg>